<?xml version="1.0" encoding="utf-8"?>
<!-- Svg Vector Icons : http://www.onlinewebfonts.com/icon -->
<!DOCTYPE svg PUBLIC "-//W3C//DTD SVG 1.1//EN" "http://www.w3.org/Graphics/SVG/1.1/DTD/svg11.dtd">
<svg version="1.1" xmlns="http://www.w3.org/2000/svg" xmlns:xlink="http://www.w3.org/1999/xlink" x="0px" y="0px" viewBox="0 0 256 256" enable-background="new 0 0 256 256" xml:space="preserve">
<metadata> Svg Vector Icons : http://www.onlinewebfonts.com/icon </metadata>
<g><g><path fill="#000000" d="M181.6,101.2c-8.9,0-16.1,7.2-16.1,16.1c0,8.9,7.2,16.1,16.1,16.1c8.9,0,16.1-7.2,16.1-16.1S190.5,101.2,181.6,101.2L181.6,101.2z M128,203.1c-10.2,0-20.5-1.2-30.6-3.7c-0.8-0.2-1.7-0.3-2.5-0.3c-1.4,0-2.7,0.3-4,0.8l-44.3,17.7l7.2-30.7c0.9-4-0.4-8.1-3.5-10.6c-19.1-16.1-29.6-37-29.6-59C20.7,70,68.8,31.5,128,31.5c59.2,0,107.3,38.5,107.3,85.8C235.3,164.6,187.1,203.1,128,203.1L128,203.1z M128,20.8C62.8,20.8,10,64,10,117.3c0,26.1,12.7,49.8,33.4,67.2l-11.9,50.7l63.4-25.4c10.5,2.5,21.6,3.9,33.1,3.9c65.2,0,118-43.2,118-96.5C246,64,193.2,20.8,128,20.8L128,20.8z M128,101.2c-8.9,0-16.1,7.2-16.1,16.1c0,8.9,7.2,16.1,16.1,16.1s16.1-7.2,16.1-16.1S136.9,101.2,128,101.2L128,101.2z M74.4,101.2c-8.9,0-16.1,7.2-16.1,16.1c0,8.9,7.2,16.1,16.1,16.1c8.9,0,16.1-7.2,16.1-16.1S83.2,101.2,74.4,101.2L74.4,101.2z"/></g></g>
</svg>